# xmcd
#
# Track frame offsets: 
#        150
#        16470
#        32756
#        54677
#        76807
#        93207
#        108878
#        130331
#        145909
#        163095
#        184167
#        201396
#        213164
#        231611
#        245776
#        263057
#
# Disc length: 3712 seconds
#
# Revision: 0
# Processed by: cddbd v1.5.2PL0 Copyright (c) Steve Scherf et al.
# Submitted via: ExactAudioCopy v1.3
#
DISCID=e50e7e10
DTITLE=Little Victor - Deluxe Lo-Fi 
DYEAR=2018
DGENRE=Blues
TTITLE0=My Mind
TTITLE1=Graveyard Boogie
TTITLE2=I Done Got Tired
TTITLE3=This Letter
TTITLE4=Slow Down Baby (feat. Steve Lucky)
TTITLE5=What Kind Of Girl Are You (feat. Tomi Leino)
TTITLE6=Some Ole Day
TTITLE7=I Wanna Make You Mine
TTITLE8=Too Late Baby
TTITLE9=Rocks
TTITLE10=So Blue
TTITLE11=What's The Matter Now (feat. Jo' Buddy)
TTITLE12=Gambler's Boogie (feat. Danny Michel)
TTITLE13=Chicago Moan Blues (feat. Harpdog Brown)
TTITLE14=Rockin Daddy (feat. Big Jon Atkinson) and Carl Sonny Leyland
TTITLE15=Country Boy (feat. Kim Wilson and Big Jon Atkinson)
EXTD=
EXTT0=
EXTT1=
EXTT2=
EXTT3=
EXTT4=
EXTT5=
EXTT6=
EXTT7=
EXTT8=
EXTT9=
EXTT10=
EXTT11=
EXTT12=
EXTT13=
EXTT14=
EXTT15=
PLAYORDER=
